<svg width="26" height="26" viewBox="0 0 26 26" fill="none" xmlns="http://www.w3.org/2000/svg">
<path fill-rule="evenodd" clip-rule="evenodd" d="M18.7134 16.8862C18.9743 17.1508 18.9743 17.5757 18.7134 17.8403L17.8466 18.7067C17.5818 18.9675 17.1567 18.9675 16.892 18.7067L13.0034 14.828L9.11486 18.7145C8.85011 18.974 8.42501 18.974 8.16026 18.7145L7.29347 17.8481C7.03254 17.5835 7.03254 17.1587 7.29347 16.8928L11.1742 13.0002L7.28565 9.11377C7.02599 8.84917 7.02599 8.42428 7.28565 8.15968L8.15243 7.29337C8.41718 7.03259 8.8423 7.03259 9.10831 7.29337L13.0031 11.172L16.8916 7.28554C17.1563 7.02603 17.5815 7.02603 17.8462 7.28554L18.713 8.15187C18.974 8.41647 18.974 8.84136 18.713 9.10723L14.8323 12.9998L18.7134 16.8862ZM13 0C9.55216 0 6.24552 1.36991 3.80707 3.80707C1.36998 6.24546 0 9.55216 0 13C0 16.4478 1.36991 19.7544 3.80707 22.1929C6.24546 24.63 9.55216 26 13 26C16.4478 26 19.7544 24.6302 22.1929 22.1929C24.63 19.7546 26 16.4478 26 13C26 9.55216 24.6302 6.24552 22.1929 3.80707C19.7546 1.36998 16.4478 0 13 0Z" fill="#E0E0E0"/>
</svg>
